<?xml version="1.0" encoding="UTF-8" standalone="no"?>
<svg
   xmlns:dc="http://purl.org/dc/elements/1.1/"
   xmlns:cc="http://creativecommons.org/ns#"
   xmlns:rdf="http://www.w3.org/1999/02/22-rdf-syntax-ns#"
   xmlns:svg="http://www.w3.org/2000/svg"
   xmlns="http://www.w3.org/2000/svg"
   xmlns:sodipodi="http://sodipodi.sourceforge.net/DTD/sodipodi-0.dtd"
   xmlns:inkscape="http://www.inkscape.org/namespaces/inkscape"
   width="1360.8977"
   height="1271.3561"
   viewBox="0 0 1361.4231 1271.4768"
   overflow="visible"
   version="1.1"
   id="svg2"
   inkscape:version="0.91 r13725"
   sodipodi:docname="54deg_cone_r1.536cm_R23.963cm.svg"
   style="overflow:visible">
  <metadata
     id="metadata76">
    <rdf:RDF>
      <cc:Work
         rdf:about="">
        <dc:format>image/svg+xml</dc:format>
        <dc:type
           rdf:resource="http://purl.org/dc/dcmitype/StillImage" />
        <dc:title></dc:title>
      </cc:Work>
    </rdf:RDF>
  </metadata>
  <defs
     id="defs74" />
  <sodipodi:namedview
     pagecolor="#ffffff"
     bordercolor="#666666"
     borderopacity="1"
     objecttolerance="10"
     gridtolerance="10"
     guidetolerance="10"
     inkscape:pageopacity="0"
     inkscape:pageshadow="2"
     inkscape:window-width="756"
     inkscape:window-height="480"
     id="namedview72"
     showgrid="false"
     fit-margin-top="0"
     fit-margin-left="0"
     fit-margin-right="0"
     fit-margin-bottom="0"
     inkscape:zoom="0.070029674"
     inkscape:cx="3599.5996"
     inkscape:cy="715.52195"
     inkscape:window-x="0"
     inkscape:window-y="0"
     inkscape:window-maximized="0"
     inkscape:current-layer="svg2" />
  <path
     d="m 639.76394,665.92327 c -0.8954,2.564 -1.5512,5.224 -1.9503,7.91"
     id="path4"
     inkscape:connector-curvature="0"
     style="fill-opacity:0;stroke:#0000ff;stroke-width:2.88000011" />
  <path
     d="m 673.89134,637.38427 c -3.0585,0.486 -6.0816,1.308 -8.9657,2.436"
     id="path6"
     inkscape:connector-curvature="0"
     style="fill-opacity:0;stroke:#0000ff;stroke-width:2.88000011" />
  <path
     d="m 720.96534,664.07127 c -1.1809,-2.947 -2.6972,-5.78 -4.4945,-8.397"
     id="path8"
     inkscape:connector-curvature="0"
     style="fill-opacity:0;stroke:#0000ff;stroke-width:2.88000011" />
  <path
     d="m 718.46304,701.56427 c 1.5064,-2.662 2.7357,-5.5 3.6468,-8.42"
     id="path10"
     inkscape:connector-curvature="0"
     style="fill-opacity:0;stroke:#0000ff;stroke-width:2.88000011" />
  <path
     d="m 702.21554,717.87827 c 6.6853,-3.779 12.4959,-9.613 16.2475,-16.314"
     id="path12"
     inkscape:connector-curvature="0"
     style="fill-opacity:0;stroke:#ff0000;stroke-width:2.88000011" />
  <path
     d="m 716.47084,655.67427 c -8.3382,-13.227 -27.2462,-21.348 -42.5795,-18.29"
     id="path14"
     inkscape:connector-curvature="0"
     style="fill-opacity:0;stroke:#ff0000;stroke-width:2.88000011" />
  <path
     d="m 680.71174,680.21527 0.5146,-0.475"
     id="path16"
     inkscape:connector-curvature="0"
     style="fill-opacity:0;stroke:#ff0000;stroke-width:2.88000011" />
  <path
     d="m 1017.506,1270.1053 c 59.903,-34.127 117.846,-79.626 167.89,-135.254 50.045,-55.627 92.192,-121.382 121.897,-192.34503 29.706,-70.964 46.971,-147.135 51.477,-221.824 4.507,-74.69 -3.744,-147.898 -21.472,-214.523 -17.604,-66.657 -46.701,-134.339 -87.615,-196.988 -40.914,-62.649 -93.645,-120.265 -154.603,-167.194 C 1034.122,95.048268 964.93704,58.806268 893.90804,35.274268 c -71.029,-23.532 -143.901,-34.35300008 -212.8441,-34.32400008 -68.9431,-0.1 -141.8266,10.64500008 -212.8798,34.10300008 -71.0532,23.458 -140.2762,59.629 -201.2827,106.495002 -61.0065,46.866 -113.7966,104.427 -154.7756,167.033 -40.978901,62.607 -70.146801,130.258 -87.819801,196.898 -17.7971998,66.606 -26.1239998,139.805 -21.6945998,214.5 4.4294,74.694 21.6148998,150.883 51.2469998,221.877 29.632,70.99403 71.710601,136.79303 121.697501,192.47203 49.9868,55.679 107.8819,101.238 167.7502,135.428"
     id="path18"
     inkscape:connector-curvature="0"
     style="fill-opacity:0;stroke:#ff0000;stroke-width:2.88000011" />
  <path
     d="m 722.10984,693.14427 c 2.9776,-9.246 2.5507,-20.09 -1.1445,-29.073"
     id="path20"
     inkscape:connector-curvature="0"
     style="fill-opacity:0;stroke:#ff0000;stroke-width:2.88000011" />
  <path
     d="m 664.92564,639.82027 c -11.3782,4.216 -21.3662,14.578 -25.1617,26.103"
     id="path22"
     inkscape:connector-curvature="0"
     style="fill-opacity:0;stroke:#ff0000;stroke-width:2.88000011" />
  <path
     d="m 637.81364,673.83327 c -1.3909,8.551 0.1995,18.653 4.8047,27.115 4.6052,8.461 12.2252,15.281 20.1613,18.756"
     id="path24"
     inkscape:connector-curvature="0"
     style="fill-opacity:0;stroke:#ff0000;stroke-width:2.88000011" />
  <path
     d="m 716.47084,655.67427 -10.4638,7.164 2.5879,5.171 12.3704,-3.938"
     id="path26"
     inkscape:connector-curvature="0"
     style="fill-opacity:0;stroke:#ff0000;stroke-width:2.88000011" />
  <path
     d="m 483.35314,922.01527 -70.3475,86.41403 0.31,0.253 70.3475,-86.41403 z"
     id="path28"
     inkscape:connector-curvature="0"
     style="fill-opacity:0;stroke:#ff0000;stroke-width:2.88000011" />
  <path
     d="m 632.09274,739.30527 -70.3474,86.414 0.31,0.252 70.3474,-86.414 z"
     id="path30"
     inkscape:connector-curvature="0"
     style="fill-opacity:0;stroke:#ff0000;stroke-width:2.88000011" />
  <path
     d="m 718.26984,746.88427 -3.2319,-0.622 -22.9201,17.299 53.7455,94.134 26.5478,-10.944 1.107,-3.1"
     id="path32"
     inkscape:connector-curvature="0"
     style="fill-opacity:0;stroke:#ff0000;stroke-width:2.88000011" />
  <path
     d="m 673.89134,637.38427 0.9645,11.729 -5.9353,0.929 -3.9949,-10.222"
     id="path34"
     inkscape:connector-curvature="0"
     style="fill-opacity:0;stroke:#ff0000;stroke-width:2.88000011" />
  <path
     d="m 718.46304,701.56427 -10.0844,-5.381 2.9942,-6.081 10.7371,3.042"
     id="path36"
     inkscape:connector-curvature="0"
     style="fill-opacity:0;stroke:#ff0000;stroke-width:2.88000011" />
  <path
     d="m 835.08404,951.48427 -3.231,-0.622 -22.921,17.298 53.746,94.13503 26.548,-10.945 1.107,-3.099"
     id="path38"
     inkscape:connector-curvature="0"
     style="fill-opacity:0;stroke:#ff0000;stroke-width:2.88000011" />
  <path
     d="m 342.78684,1094.6863 -70.3475,86.414 0.31,0.252 70.3475,-86.414 z"
     id="path40"
     inkscape:connector-curvature="0"
     style="fill-opacity:0;stroke:#ff0000;stroke-width:2.88000011" />
  <path
     d="m 639.76394,665.92327 9.6081,4.115 -1.3361,5.316 -10.2223,-1.521"
     id="path42"
     inkscape:connector-curvature="0"
     style="fill-opacity:0;stroke:#ff0000;stroke-width:2.88000011" />
  <path
     d="m 945.48004,1144.8403 -3.232,-0.622 -22.92,17.299 53.746,94.135 26.547,-10.945 1.10796,-3.1"
     id="path44"
     inkscape:connector-curvature="0"
     style="fill-opacity:0;stroke:#ff0000;stroke-width:2.88000011" />
  <path
     d="m 945.48004,1144.8403 -3.232,-0.622 -22.92,17.299 53.746,94.135 26.547,-10.945 1.10796,-3.1"
     id="path46"
     inkscape:connector-curvature="0"
     style="fill-opacity:0;stroke:#ff0000;stroke-width:2.88000011" />
  <path
     d="M 343.30624,1269.7563 662.77964,719.70427"
     id="path48"
     inkscape:connector-curvature="0"
     style="fill-opacity:0;stroke:#ff0000;stroke-width:2.88000011" />
  <path
     d="m 702.21554,717.87827 16.4363,28.788"
     id="path50"
     inkscape:connector-curvature="0"
     style="fill-opacity:0;stroke:#ff0000;stroke-width:2.88000011" />
  <path
     d="m 890.71504,1048.0333 55.147,96.589"
     id="path52"
     inkscape:connector-curvature="0"
     style="fill-opacity:0;stroke:#ff0000;stroke-width:2.88000011" />
  <path
     d="m 773.90024,843.43327 61.5658,107.833"
     id="path54"
     inkscape:connector-curvature="0"
     style="fill-opacity:0;stroke:#ff0000;stroke-width:2.88000011" />
  <path
     d="m 773.51814,843.65127 0.3821,-0.218"
     id="path56"
     inkscape:connector-curvature="0"
     style="fill-opacity:0;stroke:#ff0000;stroke-width:2.88000011" />
  <path
     d="m 718.65184,746.66627 -0.382,0.218"
     id="path58"
     inkscape:connector-curvature="0"
     style="fill-opacity:0;stroke:#ff0000;stroke-width:2.88000011" />
  <path
     d="m 1000.729,1241.6073 0.381,-0.218"
     id="path60"
     inkscape:connector-curvature="0"
     style="fill-opacity:0;stroke:#ff0000;stroke-width:2.88000011" />
  <path
     d="m 945.86204,1144.6223 -0.382,0.218"
     id="path62"
     inkscape:connector-curvature="0"
     style="fill-opacity:0;stroke:#ff0000;stroke-width:2.88000011" />
  <path
     d="m 835.46604,951.26627 -0.382,0.218"
     id="path64"
     inkscape:connector-curvature="0"
     style="fill-opacity:0;stroke:#ff0000;stroke-width:2.88000011" />
  <path
     d="m 890.33304,1048.2513 0.382,-0.218"
     id="path66"
     inkscape:connector-curvature="0"
     style="fill-opacity:0;stroke:#ff0000;stroke-width:2.88000011" />
  <path
     d="m 1001.11,1241.3893 16.396,28.716"
     id="path68"
     inkscape:connector-curvature="0"
     style="fill-opacity:0;stroke:#ff0000;stroke-width:2.88000011" />
  <path
     d="m 873.87704,1019.1903 0.279,-0.159"
     id="path70"
     inkscape:connector-curvature="0"
     style="fill-opacity:0;stroke:#ff0000;stroke-width:2.88000011" />
</svg>
