<?xml version="1.0" encoding="UTF-8" standalone="no"?>
<svg
   xmlns:dc="http://purl.org/dc/elements/1.1/"
   xmlns:cc="http://creativecommons.org/ns#"
   xmlns:rdf="http://www.w3.org/1999/02/22-rdf-syntax-ns#"
   xmlns:svg="http://www.w3.org/2000/svg"
   xmlns="http://www.w3.org/2000/svg"
   xmlns:sodipodi="http://sodipodi.sourceforge.net/DTD/sodipodi-0.dtd"
   xmlns:inkscape="http://www.inkscape.org/namespaces/inkscape"
   width="1294.3569pt"
   height="1209.1942pt"
   viewBox="0 0 1294.3569 1209.1942"
   overflow="visible"
   version="1.1"
   id="svg2"
   inkscape:version="0.91 r13725"
   sodipodi:docname="54deg_cone_r1.7cm_R22.78_dotted_bottom_cut.svg"
   style="overflow:visible">
  <metadata
     id="metadata92">
    <rdf:RDF>
      <cc:Work
         rdf:about="">
        <dc:format>image/svg+xml</dc:format>
        <dc:type
           rdf:resource="http://purl.org/dc/dcmitype/StillImage" />
        <dc:title></dc:title>
      </cc:Work>
    </rdf:RDF>
  </metadata>
  <defs
     id="defs90" />
  <sodipodi:namedview
     pagecolor="#ffffff"
     bordercolor="#666666"
     borderopacity="1"
     objecttolerance="10"
     gridtolerance="10"
     guidetolerance="10"
     inkscape:pageopacity="0"
     inkscape:pageshadow="2"
     inkscape:window-width="1920"
     inkscape:window-height="1017"
     id="namedview88"
     showgrid="false"
     fit-margin-top="0"
     fit-margin-left="0"
     fit-margin-right="0"
     fit-margin-bottom="0"
     inkscape:zoom="0.14567901"
     inkscape:cx="816.95622"
     inkscape:cy="750.85275"
     inkscape:window-x="-8"
     inkscape:window-y="-8"
     inkscape:window-maximized="1"
     inkscape:current-layer="svg2" />
  <path
     d="m 690.80158,667.64737 0.7742,-1.7379"
     id="path4"
     inkscape:connector-curvature="0"
     style="fill-opacity:0;stroke:#ff0000;stroke-width:2.88000011" />
  <path
     d="m 611.58998,679.66347 1.3103,1.3794"
     id="path6"
     inkscape:connector-curvature="0"
     style="fill-opacity:0;stroke:#ff0000;stroke-width:2.88000011" />
  <path
     d="m 686.91088,619.90527 c -9.2307,-14.6243 -30.0725,-23.6439 -47.0522,-20.3622"
     id="path8"
     inkscape:connector-curvature="0"
     style="fill-opacity:0;stroke:#ff0000;stroke-width:2.88000011" />
  <path
     d="m 671.07168,689.02137 c 7.318,-4.1385 13.6923,-10.4873 17.8598,-17.7888"
     id="path10"
     inkscape:connector-curvature="0"
     style="fill-opacity:0;stroke:#ff0000;stroke-width:2.88000011" />
  <path
     d="m 693.17648,661.53837 c 3.3084,-10.2732 2.8341,-22.3213 -1.2717,-32.3025"
     id="path12"
     inkscape:connector-curvature="0"
     style="fill-opacity:0;stroke:#ff0000;stroke-width:2.88000011" />
  <path
     d="m 616.32818,684.19227 c 10.2992,8.9056 25.9602,13.0559 39.3182,10.4197 13.4452,-2.1481 26.703,-11.4605 33.2851,-23.3794"
     id="path14"
     inkscape:connector-curvature="0"
     style="fill-opacity:0;stroke:#ff0000;stroke-width:2.88000011" />
  <path
     d="m 599.51398,640.08247 c -2.0324,12.4377 1.6484,26.6071 9.4774,36.4829"
     id="path16"
     inkscape:connector-curvature="0"
     style="fill-opacity:0;stroke:#ff0000;stroke-width:2.88000011" />
  <path
     d="m 647.17848,647.17287 0.4893,-0.4514"
     id="path18"
     inkscape:connector-curvature="0"
     style="fill-opacity:0;stroke:#ff0000;stroke-width:2.88000011" />
  <path
     d="m 967.34628,1207.9431 c 56.94672,-32.443 112.02872,-75.696 159.60272,-128.577 47.574,-52.881 87.64,-115.39003 115.879,-182.85063 28.239,-67.46 44.652,-139.8709 48.936,-210.8733 4.284,-71.0024 -3.559,-140.5962 -20.412,-203.9321 -16.735,-63.3671 -44.396,-127.7075 -83.291,-187.2636 -38.894,-59.5561 -89.021,-114.328 -146.97,-158.9404 C 983.14298,90.893567 917.37268,56.440627 849.85028,34.070627 c -67.5224,-22.37 -136.7973,-32.6570104 -202.3369,-32.6299704 -65.5396,-0.09501 -134.8252,10.1201604 -202.3707,32.4201304 -67.5456,22.29998 -133.3513,56.68478 -191.3461,101.237083 -57.9949,44.5523 -108.1789,99.2721 -147.1349,158.7879 -38.955954,59.5158 -66.683874,123.8274 -83.484504,187.1771 -16.9185703,63.3184 -24.8342803,132.9041 -20.6235703,203.9109 4.21072,71.0068 20.5478603,143.4347 48.7171003,210.9239 28.16927,67.4894 68.170574,130.04043 115.689674,182.97043 47.5192,52.93 102.5563,96.24 159.4691,128.742"
     id="path20"
     inkscape:connector-curvature="0"
     style="fill-opacity:0;stroke:#ff0000;stroke-width:2.88000011" />
  <path
     d="m 693.17648,661.53837 c 3.3084,-10.2732 2.8341,-22.3213 -1.2717,-32.3025"
     id="path22"
     inkscape:connector-curvature="0"
     style="fill-opacity:0;stroke:#ff0000;stroke-width:2.88000011" />
  <path
     d="m 675.52498,647.17287 c 0.1758,-6.612 -2.8249,-14.5664 -8.3025,-20.044 -5.4776,-5.4775 -13.432,-8.4783 -20.044,-8.3025 -6.612,-0.1758 -14.5664,2.825 -20.0439,8.3025 -5.4776,5.4776 -8.4783,13.432 -8.3025,20.044 -0.1758,6.612 2.8249,14.5664 8.3025,20.044 5.4775,5.4775 13.4319,8.4782 20.0439,8.3025 6.612,0.1757 14.5664,-2.825 20.044,-8.3025 5.4776,-5.4776 8.4783,-13.432 8.3025,-20.044 z"
     id="path24"
     inkscape:connector-curvature="0"
     style="fill-opacity:0;stroke:#ff0000;stroke-width:2.88000011" />
  <path
     d="m 616.32818,684.19227 c 3.3019,2.7546 7.0096,5.0817 10.9257,6.8575"
     id="path26"
     inkscape:connector-curvature="0"
     style="fill-opacity:0;stroke:#ff0000;stroke-width:2.88000011" />
  <path
     d="m 629.63838,602.28937 c -12.1865,4.5421 -22.9439,15.3515 -27.4272,27.5597"
     id="path28"
     inkscape:connector-curvature="0"
     style="fill-opacity:0;stroke:#ff0000;stroke-width:2.88000011" />
  <path
     d="m 690.24358,625.54927 -0.8872,-1.6831"
     id="path30"
     inkscape:connector-curvature="0"
     style="fill-opacity:0;stroke:#ff0000;stroke-width:2.88000011" />
  <path
     d="m 600.91708,633.68007 -0.4966,1.8366"
     id="path32"
     inkscape:connector-curvature="0"
     style="fill-opacity:0;stroke:#ff0000;stroke-width:2.88000011" />
  <path
     d="m 635.89128,600.32447 -1.8405,0.482"
     id="path34"
     inkscape:connector-curvature="0"
     style="fill-opacity:0;stroke:#ff0000;stroke-width:2.88000011" />
  <path
     d="m 793.93048,905.05057 -3.0723,-0.5916 -21.7887,16.4447 51.0924,89.48743 25.2372,-10.40403 1.0524,-2.947"
     id="path36"
     inkscape:connector-curvature="0"
     style="fill-opacity:0;stroke:#ff0000;stroke-width:2.88000011" />
  <path
     d="m 898.87628,1088.8621 -3.0723,-0.592 -21.7887,16.445 51.0924,89.488 25.2373,-10.405 1.0523,-2.947"
     id="path38"
     inkscape:connector-curvature="0"
     style="fill-opacity:0;stroke:#ff0000;stroke-width:2.88000011" />
  <path
     d="m 898.87628,1088.8621 -3.0723,-0.592 -21.7887,16.445 51.0924,89.488 25.2373,-10.405 1.0523,-2.947"
     id="path40"
     inkscape:connector-curvature="0"
     style="fill-opacity:0;stroke:#ff0000;stroke-width:2.88000011" />
  <path
     d="m 682.88258,710.55127 -3.0724,-0.5914 -21.7887,16.4446 51.0924,89.4877 25.2372,-10.4045 1.0524,-2.9465"
     id="path42"
     inkscape:connector-curvature="0"
     style="fill-opacity:0;stroke:#ff0000;stroke-width:2.88000011" />
  <path
     d="m 600.95968,703.34577 -66.8747,82.1484 0.2948,0.2399 66.8747,-82.1484 z"
     id="path44"
     inkscape:connector-curvature="0"
     style="fill-opacity:0;stroke:#ff0000;stroke-width:2.88000011" />
  <path
     d="m 459.56278,877.03657 -66.8747,82.1484 0.2947,0.2398 66.8747,-82.1483 z"
     id="path46"
     inkscape:connector-curvature="0"
     style="fill-opacity:0;stroke:#ff0000;stroke-width:2.88000011" />
  <path
     d="m 325.93578,1041.1831 -66.8747,82.148 0.2947,0.24 66.8747,-82.148 z"
     id="path48"
     inkscape:connector-curvature="0"
     style="fill-opacity:0;stroke:#ff0000;stroke-width:2.88000011" />
  <path
     d="m 639.85868,599.54307 7.3199,47.6298"
     id="path50"
     inkscape:connector-curvature="0"
     style="fill-opacity:0;stroke:#ff0000;stroke-width:2.88000011" />
  <path
     d="m 616.32818,684.19227 30.8504,-37.0194 45.9979,14.3655"
     id="path52"
     inkscape:connector-curvature="0"
     style="fill-opacity:0;stroke:#ff0000;stroke-width:2.88000011" />
  <path
     d="m 608.99148,676.56537 38.1871,-29.3925"
     id="path54"
     inkscape:connector-curvature="0"
     style="fill-opacity:0;stroke:#ff0000;stroke-width:2.88000011" />
  <path
     d="m 830.80828,969.41407 0.2652,-0.151"
     id="path56"
     inkscape:connector-curvature="0"
     style="fill-opacity:0;stroke:#ff0000;stroke-width:2.88000011" />
  <path
     d="m 951.76038,1180.6441 15.5859,27.299"
     id="path58"
     inkscape:connector-curvature="0"
     style="fill-opacity:0;stroke:#ff0000;stroke-width:2.88000011" />
  <path
     d="m 846.81458,996.83307 52.4249,91.82103"
     id="path60"
     inkscape:connector-curvature="0"
     style="fill-opacity:0;stroke:#ff0000;stroke-width:2.88000011" />
  <path
     d="m 846.45148,997.04007 0.3631,-0.207"
     id="path62"
     inkscape:connector-curvature="0"
     style="fill-opacity:0;stroke:#ff0000;stroke-width:2.88000011" />
  <path
     d="m 794.29358,904.84317 -0.3631,0.2074"
     id="path64"
     inkscape:connector-curvature="0"
     style="fill-opacity:0;stroke:#ff0000;stroke-width:2.88000011" />
  <path
     d="m 899.23948,1088.6541 -0.3632,0.208"
     id="path66"
     inkscape:connector-curvature="0"
     style="fill-opacity:0;stroke:#ff0000;stroke-width:2.88000011" />
  <path
     d="m 951.39728,1180.8511 0.3631,-0.207"
     id="path68"
     inkscape:connector-curvature="0"
     style="fill-opacity:0;stroke:#ff0000;stroke-width:2.88000011" />
  <path
     d="m 683.24568,710.34407 -0.3631,0.2072"
     id="path70"
     inkscape:connector-curvature="0"
     style="fill-opacity:0;stroke:#ff0000;stroke-width:2.88000011" />
  <path
     d="m 735.40348,802.54117 0.3632,-0.2074 58.5269,102.5094"
     id="path72"
     inkscape:connector-curvature="0"
     style="fill-opacity:0;stroke:#ff0000;stroke-width:2.88000011" />
  <path
     d="M 326.42948,1207.6101 630.13168,684.71267"
     id="path74"
     inkscape:connector-curvature="0"
     style="fill-opacity:0;stroke:#ff0000;stroke-width:2.88000011" />
  <path
     d="m 667.62078,682.97717 15.6249,27.3669"
     id="path76"
     inkscape:connector-curvature="0"
     style="fill-opacity:0;stroke:#ff0000;stroke-width:2.88000011" />
  <path
     d="m 691.90478,629.23587 -44.7262,17.937"
     id="path78"
     inkscape:connector-curvature="0"
     style="fill-opacity:0;stroke:#ff0000;stroke-width:2.88000011" />
  <path
     d="m 629.63838,602.28947 17.5402,44.8834"
     id="path80"
     inkscape:connector-curvature="0"
     style="fill-opacity:0;stroke:#ff0000;stroke-width:2.88000011" />
  <path
     d="m 688.93148,671.23257 -41.7529,-24.0597 39.7323,-27.2676"
     id="path82"
     inkscape:connector-curvature="0"
     style="fill-opacity:0;stroke:#ff0000;stroke-width:2.88000011" />
  <path
     d="m 602.21118,629.84917 44.9674,17.3237"
     id="path84"
     inkscape:connector-curvature="0"
     style="fill-opacity:0;stroke:#ff0000;stroke-width:2.88000011" />
  <path
     d="m 599.51398,640.08257 47.6646,7.0903"
     id="path86"
     inkscape:connector-curvature="0"
     style="fill-opacity:0;stroke:#ff0000;stroke-width:2.88000011" />
</svg>
