<?xml version="1.0" encoding="UTF-8" standalone="no"?>
<!-- Created with Inkscape (http://www.inkscape.org/) -->

<svg
   width="210mm"
   height="297mm"
   viewBox="0 0 210 297"
   version="1.1"
   id="svg5"
   inkscape:version="1.1 (c68e22c387, 2021-05-23)"
   sodipodi:docname="cone_design.svg"
   xmlns:inkscape="http://www.inkscape.org/namespaces/inkscape"
   xmlns:sodipodi="http://sodipodi.sourceforge.net/DTD/sodipodi-0.dtd"
   xmlns="http://www.w3.org/2000/svg"
   xmlns:svg="http://www.w3.org/2000/svg">
  <sodipodi:namedview
     id="namedview7"
     pagecolor="#ffffff"
     bordercolor="#666666"
     borderopacity="1.0"
     inkscape:pageshadow="2"
     inkscape:pageopacity="0.0"
     inkscape:pagecheckerboard="0"
     inkscape:document-units="mm"
     showgrid="false"
     inkscape:zoom="0.4120195"
     inkscape:cx="77.666227"
     inkscape:cy="355.56569"
     inkscape:window-width="1920"
     inkscape:window-height="1137"
     inkscape:window-x="-8"
     inkscape:window-y="32"
     inkscape:window-maximized="1"
     inkscape:current-layer="layer1" />
  <defs
     id="defs2" />
  <g
     inkscape:label="レイヤー 1"
     inkscape:groupmode="layer"
     id="layer1">
    <g
       style="overflow:visible;stroke-width:1.63828"
       id="g896"
       transform="matrix(0.16143954,0,0,0.161388,6.2937321,64.018283)">
      <path
         d="m 647.76877,584.43746 c -2.1224,-2.5194 -4.5382,-4.8172 -7.1606,-6.811"
         id="path4"
         inkscape:connector-curvature="0"
         style="fill-opacity:0;stroke:#0000ff;stroke-width:4.71825" />
      <path
         d="m 657.50287,622.19126 c 0.618,-3.113 0.9056,-6.3095 0.8531,-9.4829"
         id="path6"
         inkscape:connector-curvature="0"
         style="fill-opacity:0;stroke:#0000ff;stroke-width:4.71825" />
      <path
         d="m 568.36827,612.68376 c -0.0479,2.8172 0.1714,5.6514 0.6523,8.4278"
         id="path8"
         inkscape:connector-curvature="0"
         style="fill-opacity:0;stroke:#0000ff;stroke-width:4.71825" />
      <path
         d="m 592.70587,573.46136 c -2.8551,1.4741 -5.5664,3.2668 -8.0409,5.3167"
         id="path10"
         inkscape:connector-curvature="0"
         style="fill-opacity:0;stroke:#0000ff;stroke-width:4.71825" />
      <path
         d="m 640.60817,577.62646 c -12.5188,-10.3182 -33.7904,-12.1678 -47.9023,-4.1651"
         id="path12"
         inkscape:connector-curvature="0"
         style="fill-opacity:0;stroke:#ff0000;stroke-width:4.71825" />
      <path
         d="m 646.80347,643.55126 c 5.357,-5.8984 9.1835,-13.5375 10.6994,-21.36"
         id="path14"
         inkscape:connector-curvature="0"
         style="fill-opacity:0;stroke:#ff0000;stroke-width:4.71825" />
      <path
         d="m 613.36187,613.44046 0.3776,-0.6804"
         id="path16"
         inkscape:connector-curvature="0"
         style="fill-opacity:0;stroke:#ff0000;stroke-width:4.71825" />
      <path
         d="m 1068.1661,1022.948 c 37.169,-41.22204 70.185,-89.42604 95.941,-142.62874 25.755,-53.2029 44.248,-111.4045 53.704,-171.0391 9.455,-59.6346 9.873,-120.7023 1.838,-179.2628 -8.034,-58.5604 -24.52,-114.6135 -47.114,-165.3113 -22.523,-50.7291 -53.114,-100.508 -91.226,-145.6889 -38.113,-45.1809 -83.74703,-85.7639 -134.36903,-118.6746 -50.622,-32.910603 -106.232,-58.149003 -162.991,-74.647123 C 727.18877,9.1973271 669.27887,1.4394771 613.77447,1.4405571 c -55.5045,-0.0759 -113.4247,7.60387 -170.2068,24.0254499 -56.782,16.42155 -112.426,41.58495 -163.0923,74.42735 -50.6662,32.842403 -96.3549,73.363903 -134.5282,118.493403 -38.1734,45.1295 -68.831304,94.867 -91.423104,145.5657 -22.6621,50.6673 -39.2235,106.6981 -47.3366996,165.2477 -8.11319996,58.5495 -7.77829996,119.6177 1.5968,179.2651 9.3750996,59.6473 27.7903996,117.8737 53.4737996,171.1113 25.6834,53.2374 58.634904,101.4864 95.747704,142.75844"
         id="path18"
         inkscape:connector-curvature="0"
         style="fill-opacity:0;stroke:#ff0000;stroke-width:4.71825" />
      <path
         d="m 658.35597,612.70836 c -0.0747,-10.0783 -4.0235,-20.6226 -10.5872,-28.2709"
         id="path20"
         inkscape:connector-curvature="0"
         style="fill-opacity:0;stroke:#ff0000;stroke-width:4.71825" />
      <path
         d="m 584.66497,578.77806 c -9.8383,7.8564 -16.3073,21.3154 -16.2967,33.9057"
         id="path22"
         inkscape:connector-curvature="0"
         style="fill-opacity:0;stroke:#ff0000;stroke-width:4.71825" />
      <path
         d="m 569.02057,621.11156 c 1.5852,9.6197 6.7881,19.1023 14.0502,25.6072"
         id="path24"
         inkscape:connector-curvature="0"
         style="fill-opacity:0;stroke:#ff0000;stroke-width:4.71825" />
      <path
         d="m 971.15407,936.13096 -2.941,0.381 -14.721,21.276 72.57803,65.34904 19.62,-16.864 0.071,-2.965"
         id="path26"
         inkscape:connector-curvature="0"
         style="fill-opacity:0;stroke:#ff0000;stroke-width:4.71825" />
      <path
         d="m 672.78237,667.47616 -2.9408,0.3808 -14.7211,21.2754 72.5776,65.3492 19.6201,-16.8644 0.0713,-2.9645"
         id="path28"
         inkscape:connector-curvature="0"
         style="fill-opacity:0;stroke:#ff0000;stroke-width:4.71825" />
      <path
         d="m 545.47487,656.35866 -84.6165,54.0272 0.1938,0.3035 84.6165,-54.0272 z"
         id="path30"
         inkscape:connector-curvature="0"
         style="fill-opacity:0;stroke:#ff0000;stroke-width:4.71825" />
      <path
         d="m 376.15087,764.47106 -84.6165,54.0272 0.1938,0.3035 84.6165,-54.0272 z"
         id="path32"
         inkscape:connector-curvature="0"
         style="fill-opacity:0;stroke:#ff0000;stroke-width:4.71825" />
      <path
         d="m 592.70597,573.46136 4.7665,11.2414 -5.5452,2.8472 -7.2623,-8.7719"
         id="path34"
         inkscape:connector-curvature="0"
         style="fill-opacity:0;stroke:#ff0000;stroke-width:4.71825" />
      <path
         d="m 822.07707,801.90136 -2.941,0.3808 -14.721,21.2753 72.577,65.3493 19.62,-16.8644 0.072,-2.9645"
         id="path36"
         inkscape:connector-curvature="0"
         style="fill-opacity:0;stroke:#ff0000;stroke-width:4.71825" />
      <path
         d="m 207.07257,872.42656 -84.6165,54.0272 0.1938,0.3035 84.6166,-54.0271 z"
         id="path38"
         inkscape:connector-curvature="0"
         style="fill-opacity:0;stroke:#ff0000;stroke-width:4.71825" />
      <path
         d="m 971.15407,936.13096 -2.941,0.381 -14.721,21.276 72.57803,65.34904 19.62,-16.864 0.071,-2.965"
         id="path40"
         inkscape:connector-curvature="0"
         style="fill-opacity:0;stroke:#ff0000;stroke-width:4.71825" />
      <path
         d="m 657.50287,622.19136 -11.6866,-2.0208 0.9714,-6.9655 11.5683,-0.4967"
         id="path42"
         inkscape:connector-curvature="0"
         style="fill-opacity:0;stroke:#ff0000;stroke-width:4.71825" />
      <path
         d="m 568.36837,612.68376 10.8049,0.9271 0.4135,5.6727 -10.5662,1.828"
         id="path44"
         inkscape:connector-curvature="0"
         style="fill-opacity:0;stroke:#ff0000;stroke-width:4.71825" />
      <path
         d="m 640.60817,577.62646 -7.9782,10.4633 4.2322,4.2524 10.9066,-7.9047"
         id="path46"
         inkscape:connector-curvature="0"
         style="fill-opacity:0;stroke:#ff0000;stroke-width:4.71825" />
      <path
         d="m 1046.0261,1003.013 22.14,19.935"
         id="path48"
         inkscape:connector-curvature="0"
         style="fill-opacity:0;stroke:#ff0000;stroke-width:4.71825" />
      <path
         d="m 747.65467,734.35816 74.6874,67.2487"
         id="path50"
         inkscape:connector-curvature="0"
         style="fill-opacity:0;stroke:#ff0000;stroke-width:4.71825" />
      <path
         d="m 935.27607,903.77386 0.239,-0.2653"
         id="path52"
         inkscape:connector-curvature="0"
         style="fill-opacity:0;stroke:#ff0000;stroke-width:4.71825" />
      <path
         d="m 896.94907,868.78336 74.47,67.0536"
         id="path54"
         inkscape:connector-curvature="0"
         style="fill-opacity:0;stroke:#ff0000;stroke-width:4.71825" />
      <path
         d="m 646.80347,643.55136 26.2441,23.6303"
         id="path56"
         inkscape:connector-curvature="0"
         style="fill-opacity:0;stroke:#ff0000;stroke-width:4.71825" />
      <path
         d="M 158.00567,1022.335 583.07087,646.71886"
         id="path58"
         inkscape:connector-curvature="0"
         style="fill-opacity:0;stroke:#ff0000;stroke-width:4.71825" />
      <path
         d="m 896.68407,869.07786 0.265,-0.2945"
         id="path60"
         inkscape:connector-curvature="0"
         style="fill-opacity:0;stroke:#ff0000;stroke-width:4.71825" />
      <path
         d="m 822.34207,801.60686 -0.265,0.2945"
         id="path62"
         inkscape:connector-curvature="0"
         style="fill-opacity:0;stroke:#ff0000;stroke-width:4.71825" />
      <path
         d="m 971.41907,935.83696 -0.265,0.294"
         id="path64"
         inkscape:connector-curvature="0"
         style="fill-opacity:0;stroke:#ff0000;stroke-width:4.71825" />
      <path
         d="m 1045.7611,1003.308 0.265,-0.295"
         id="path66"
         inkscape:connector-curvature="0"
         style="fill-opacity:0;stroke:#ff0000;stroke-width:4.71825" />
      <path
         d="m 673.04757,667.18166 -0.2652,0.2945"
         id="path68"
         inkscape:connector-curvature="0"
         style="fill-opacity:0;stroke:#ff0000;stroke-width:4.71825" />
      <path
         d="m 747.38947,734.65266 0.2652,-0.2945"
         id="path70"
         inkscape:connector-curvature="0"
         style="fill-opacity:0;stroke:#ff0000;stroke-width:4.71825" />
    </g>
  </g>
</svg>
